<svg width="28" height="28" viewBox="0 0 28 28" fill="none" xmlns="http://www.w3.org/2000/svg">
<path fill-rule="evenodd" clip-rule="evenodd" d="M7.31256 7.5424C9.25868 5.10302 11.5549 3.20289 13 2.12456V26V26.2031C7.80104 25.7126 3.75014 21.4384 3.75015 16.2944L3.75013 16.2905C3.7335 13.0686 5.30536 10.0583 7.31256 7.5424ZM24.1909 17.3788C23.6751 22.0206 19.8343 25.7471 15 26.2031V26V22.6852L24.1909 17.3788ZM24.2292 15.6246L15 20.9531V16.3352L23.1827 11.6109C23.7572 12.8947 24.1385 14.2413 24.2292 15.6246ZM22.5035 10.2709L15 14.6031V9.99348L20.1914 6.99621C20.3586 7.19398 20.5241 7.39561 20.6871 7.60091C21.3552 8.44224 21.9747 9.336 22.5035 10.2709ZM19.1698 5.854C17.6383 4.23117 16.0805 2.94459 15 2.12192V8.26143L19.1698 5.854ZM12.2273 0.82999C13.2735 0.0566593 14.7325 0.0566698 15.7787 0.830022L15.7846 0.834406L15.7846 0.834435C17.2694 1.95478 19.7503 4.00887 21.8618 6.66814C23.9651 9.31695 25.7684 12.65 25.7499 16.3138C25.7488 22.6322 20.4584 27.75 14 27.75C7.54077 27.75 2.25122 22.6314 2.25014 16.2964C2.23162 12.5862 4.03341 9.24745 6.13999 6.60694C8.25371 3.95747 10.7377 1.93098 12.2273 0.830022L12.2273 0.82999Z" fill="white"/>
</svg>
