<svg width="28" height="28" viewBox="0 0 28 28" fill="none" xmlns="http://www.w3.org/2000/svg">
<path d="M13.1796 7.03534C13.4733 6.32155 14.5265 6.32155 14.8202 7.03534L15.8054 9.42788C15.8868 9.6258 16.0431 9.787 16.2431 9.87932C16.443 9.97165 16.6719 9.98832 16.884 9.92601L19.4489 9.17332C20.2145 8.94836 20.8707 9.73741 20.472 10.403L19.1358 12.6332C19.0253 12.8176 18.9914 13.0352 19.0408 13.2425C19.0901 13.4499 19.2192 13.6318 19.4022 13.752L21.616 15.2058C22.2757 15.6388 22.0411 16.6233 21.2499 16.7391L18.5987 17.1281C18.3794 17.1601 18.1808 17.2702 18.0423 17.4363C17.9039 17.6024 17.8358 17.8125 17.8516 18.0246L18.0465 20.5905C18.1047 21.3559 17.1557 21.794 16.5692 21.273L14.5988 19.5274C14.4358 19.3829 14.2219 19.3026 13.9999 19.3026C13.7779 19.3026 13.564 19.3829 13.401 19.5274L11.4315 21.273C10.8432 21.794 9.89507 21.3559 9.95328 20.5905L10.1473 18.0255C10.1634 17.8133 10.0955 17.6032 9.95726 17.4369C9.81897 17.2706 9.62041 17.1603 9.40115 17.1281L6.74986 16.7391C5.9587 16.6233 5.72409 15.6388 6.38471 15.2058L8.59853 13.752C8.78138 13.6317 8.91025 13.4497 8.95945 13.2424C9.00865 13.035 8.97457 12.8175 8.86401 12.6332L7.52778 10.403C7.12912 9.73741 7.78533 8.94836 8.5509 9.17247L11.1158 9.92516C11.3278 9.98752 11.5566 9.97097 11.7565 9.87881C11.9564 9.78665 12.1128 9.62564 12.1944 9.42788L13.1796 7.03534Z" stroke="white" stroke-width="1.5"/>
<path fill-rule="evenodd" clip-rule="evenodd" d="M7.32011 1.88564C7.65944 1.6481 8.12709 1.73063 8.36463 2.06997L10.1146 4.56997C10.3522 4.9093 10.2696 5.37695 9.9303 5.61449C9.59096 5.85202 9.12332 5.7695 8.88578 5.43016L7.13578 2.93016C6.89824 2.59082 6.98077 2.12318 7.32011 1.88564ZM20.6334 1.88564C20.2941 1.6481 19.8264 1.73063 19.5889 2.06997L17.8389 4.56997C17.6014 4.9093 17.6839 5.37695 18.0232 5.61449C18.3626 5.85202 18.8302 5.7695 19.0678 5.43016L20.8178 2.93016C21.0553 2.59082 20.9728 2.12318 20.6334 1.88564ZM25.763 10.5386C26.1559 10.4076 26.5807 10.6199 26.7117 11.0128C26.8427 11.4058 26.6304 11.8305 26.2374 11.9616L23.2381 12.9616C22.8452 13.0926 22.4204 12.8802 22.2894 12.4873C22.1584 12.0943 22.3708 11.6696 22.7637 11.5386L25.763 10.5386ZM1.28871 11.0128C1.41972 10.6199 1.84448 10.4076 2.23743 10.5386L5.2367 11.5386C5.62965 11.6696 5.84199 12.0943 5.71097 12.4873C5.57996 12.8802 5.15521 13.0926 4.76226 12.9616L1.76298 11.9616C1.37003 11.8305 1.15769 11.4058 1.28871 11.0128ZM21.6314 19.7826C21.2912 19.5462 20.8239 19.6303 20.5875 19.9705C20.3511 20.3106 20.4352 20.778 20.7753 21.0144L23.3714 22.8188C23.7115 23.0552 24.1789 22.9711 24.4153 22.6309C24.6517 22.2908 24.5676 21.8234 24.2275 21.587L21.6314 19.7826ZM6.5145 19.9705C6.2781 19.6303 5.81073 19.5462 5.4706 19.7826L2.87448 21.587C2.53435 21.8234 2.45026 22.2908 2.68667 22.6309C2.92307 22.9711 3.39044 23.0552 3.73056 22.8188L6.32668 21.0144C6.66681 20.778 6.7509 20.3106 6.5145 19.9705ZM14.7502 23.5001C14.7502 23.0859 14.4144 22.7501 14.0002 22.7501C13.586 22.7501 13.2502 23.0859 13.2502 23.5001V26.686C13.2502 27.1002 13.586 27.436 14.0002 27.436C14.4144 27.436 14.7502 27.1002 14.7502 26.686V23.5001Z" fill="white"/>
</svg>
