<svg width="10" height="10" viewBox="0 0 10 10" fill="none" xmlns="http://www.w3.org/2000/svg">
<path opacity="0.4" fill-rule="evenodd" clip-rule="evenodd" d="M9.79858 8.84066C10.0637 9.10581 10.0637 9.53571 9.79858 9.80086C9.53349 10.066 9.10369 10.066 8.8386 9.80086L5 5.96136L1.1614 9.80086C0.896306 10.066 0.46651 10.066 0.20142 9.80086C-0.0636701 9.53571 -0.0636701 9.10581 0.20142 8.84066L4.04002 5.00116L0.198818 1.15906C-0.0662725 0.893912 -0.0662725 0.464016 0.198818 0.198864C0.463908 -0.0662877 0.893703 -0.0662882 1.15879 0.198864L5 4.04096L8.84121 0.198864C9.1063 -0.0662882 9.53609 -0.0662877 9.80118 0.198864C10.0663 0.464016 10.0663 0.893912 9.80118 1.15906L5.95998 5.00116L9.79858 8.84066Z" fill="white"/>
</svg>
