<svg width="28" height="28" viewBox="0 0 28 28" fill="none" xmlns="http://www.w3.org/2000/svg">
<path d="M22.5 25V26.5H5.5V25H22.5ZM25 22.5V5.5C25 4.11929 23.8807 3 22.5 3H5.5C4.11929 3 3 4.11929 3 5.5V22.5C3 23.8807 4.11929 25 5.5 25V26.5L5.29395 26.4951C3.2488 26.3913 1.60865 24.7512 1.50488 22.7061L1.5 22.5V5.5C1.5 3.35996 3.18056 1.61211 5.29395 1.50488L5.5 1.5H22.5L22.7061 1.50488C24.8194 1.61211 26.5 3.35996 26.5 5.5V22.5L26.4951 22.7061C26.3913 24.7512 24.7512 26.3913 22.7061 26.4951L22.5 26.5V25C23.8807 25 25 23.8807 25 22.5Z" fill="white"/>
<path d="M25 3L3.5 24.5" stroke="white" stroke-width="1.5"/>
<path d="M15.2054 2.29688L2.28906 15.2132" stroke="white" stroke-width="1.5"/>
</svg>
