<svg width="20" height="20" viewBox="0 0 20 20" fill="none" xmlns="http://www.w3.org/2000/svg">
<path fill-rule="evenodd" clip-rule="evenodd" d="M10 2.75C10.4142 2.75 10.75 3.08579 10.75 3.5V12.2284L13.0087 9.96967C13.3016 9.67678 13.7765 9.67678 14.0694 9.96967C14.3623 10.2626 14.3623 10.7374 14.0694 11.0303L10.5339 14.5659C10.241 14.8588 9.76609 14.8588 9.4732 14.5659L5.93766 11.0303C5.64477 10.7374 5.64477 10.2626 5.93766 9.96967C6.23056 9.67678 6.70543 9.67678 6.99832 9.96967L9.25 12.2213V3.5C9.25 3.08579 9.58579 2.75 10 2.75ZM17 17.25C17.4142 17.25 17.75 16.9142 17.75 16.5C17.75 16.0858 17.4142 15.75 17 15.75L3 15.75C2.58579 15.75 2.25 16.0858 2.25 16.5C2.25 16.9142 2.58579 17.25 3 17.25L17 17.25Z" fill="#0F1115"/>
</svg>
