<svg width="28" height="28" viewBox="0 0 28 28" fill="none" xmlns="http://www.w3.org/2000/svg">
<path fill-rule="evenodd" clip-rule="evenodd" d="M25.5 14C25.5 20.3513 20.3513 25.5 14 25.5C7.64873 25.5 2.5 20.3513 2.5 14C2.5 7.64873 7.64873 2.5 14 2.5C20.3513 2.5 25.5 7.64873 25.5 14ZM27 14C27 21.1797 21.1797 27 14 27C6.8203 27 1 21.1797 1 14C1 6.8203 6.8203 1 14 1C21.1797 1 27 6.8203 27 14ZM11 13.25C10.7908 13.25 10.591 13.3374 10.449 13.4911C10.3071 13.6448 10.2358 13.8509 10.2524 14.0595C10.3896 15.7847 10.6462 17.3885 11.1641 18.5807C11.6894 19.79 12.5758 20.75 14 20.75C15.4242 20.75 16.3106 19.79 16.8359 18.5807C17.3538 17.3885 17.6104 15.7847 17.7476 14.0595C17.7642 13.8509 17.6929 13.6448 17.551 13.4911C17.409 13.3374 17.2092 13.25 17 13.25H11ZM12.5398 17.983C12.1937 17.1863 11.9668 16.0802 11.8231 14.75H16.1769C16.0332 16.0802 15.8063 17.1863 15.4602 17.983C15.0535 18.9191 14.5758 19.25 14 19.25C13.4242 19.25 12.9465 18.9191 12.5398 17.983ZM7.21595 8.3793C7.55876 7.94628 8.18769 7.87315 8.6207 8.21595L10.8707 9.9972C11.1597 10.226 11.2994 10.5952 11.2343 10.958C11.1691 11.3208 10.9096 11.6184 10.5591 11.7323L6.80909 12.951C6.28384 13.1217 5.71967 12.8343 5.54897 12.3091C5.37826 11.7838 5.66567 11.2197 6.19091 11.049L8.16619 10.407L7.3793 9.78405C6.94628 9.44124 6.87315 8.81231 7.21595 8.3793ZM19.3793 8.21595C19.8123 7.87315 20.4412 7.94628 20.784 8.3793C21.1269 8.81231 21.0537 9.44124 20.6207 9.78405L19.8338 10.407L21.8091 11.049C22.3343 11.2197 22.6217 11.7838 22.451 12.3091C22.2803 12.8343 21.7162 13.1217 21.1909 12.951L17.4409 11.7323C17.0904 11.6184 16.8309 11.3208 16.7657 10.958C16.7006 10.5952 16.8403 10.226 17.1293 9.9972L19.3793 8.21595Z" fill="white"/>
</svg>
