<svg width="28" height="28" viewBox="0 0 28 28" fill="none" xmlns="http://www.w3.org/2000/svg">
<path fill-rule="evenodd" clip-rule="evenodd" d="M24.254 8.53737L20.0113 4.29473C19.035 3.31842 17.4521 3.31842 16.4758 4.29473L8.63922 12.1313L8.98481 12.4769L16.4174 19.9095L24.254 12.0729C25.2303 11.0966 25.2303 9.51368 24.254 8.53737ZM15.3567 20.9701L7.92415 13.5375L7.57856 13.1919L3.74786 17.0227C2.77155 17.999 2.77155 19.5819 3.74786 20.5582L7.09926 23.9096C7.18585 23.9962 7.30121 24.048 7.42345 24.0552L10.8816 24.2586C11.5945 24.3005 12.2912 24.0356 12.7962 23.5307L15.3567 20.9701ZM21.072 3.23407C19.5099 1.67198 16.9772 1.67198 15.4151 3.23407L2.6872 15.962C1.1251 17.5241 1.1251 20.0568 2.6872 21.6188L6.0386 24.9703C6.38496 25.3166 6.84639 25.5238 7.33537 25.5526L10.7935 25.756C11.9341 25.8231 13.0489 25.3992 13.8568 24.5913L25.3146 13.1336C26.8767 11.5715 26.8767 9.03881 25.3146 7.47671L21.072 3.23407ZM16.7435 25.5463C16.7435 25.1321 17.0793 24.7963 17.4935 24.7963H25.4935C25.9078 24.7963 26.2435 25.1321 26.2435 25.5463C26.2435 25.9605 25.9078 26.2963 25.4935 26.2963H17.4935C17.0793 26.2963 16.7435 25.9605 16.7435 25.5463Z" fill="white"/>
</svg>
