<svg width="28" height="28" viewBox="0 0 28 28" fill="none" xmlns="http://www.w3.org/2000/svg">
<path fill-rule="evenodd" clip-rule="evenodd" d="M21.2193 19.7807L18.6237 19.7778C18.2233 19.7773 17.8302 19.8851 17.4861 20.0897C17.1419 20.2943 16.8595 20.5881 16.6685 20.94C16.4776 21.292 16.3854 21.6889 16.4015 22.089C16.4177 22.489 16.5417 22.8773 16.7603 23.2127L16.8889 23.3889C17.1503 23.7159 17.3141 24.1101 17.3613 24.5261C17.4086 24.9421 17.3374 25.3629 17.156 25.7403C16.9746 26.1176 16.6903 26.436 16.3359 26.6589C15.9815 26.8817 15.5713 27 15.1527 27H14C10.5522 27 7.24558 25.6304 4.80761 23.1924C2.36964 20.7544 1 17.4478 1 14C1 10.5522 2.36964 7.24558 4.80761 4.80761C7.24558 2.36964 10.5522 1 14 1C17.3815 1.00004 20.6299 2.31768 23.056 4.67331C25.482 7.02895 26.8947 10.2372 26.9942 13.6172L27 14C27 15.4831 26.43 16.9095 25.4078 17.9841C24.3856 19.0587 22.9895 19.6993 21.5082 19.7734L21.2193 19.7807ZM15.1527 25.5H15.1526H14C10.95 25.5 8.02494 24.2884 5.86827 22.1317C3.7116 19.9751 2.5 17.05 2.5 14C2.5 10.95 3.7116 8.02494 5.86827 5.86827C8.02494 3.71161 10.95 2.5 14 2.5C16.9913 2.50004 19.8649 3.66564 22.011 5.74947C24.1546 7.83089 25.4039 10.6648 25.4946 13.651L25.5 14.0104C25.4973 15.105 25.0755 16.157 24.3209 16.9503C23.568 17.7419 22.541 18.2154 21.4506 18.2744L21.2015 18.2806L18.6253 18.2778H18.6253C17.9546 18.2771 17.2961 18.4576 16.7196 18.8003C16.1431 19.1431 15.6699 19.6352 15.3501 20.2248C15.1495 20.5945 15.0139 20.9938 14.9474 21.4055C14.9078 21.6504 14.8927 21.8996 14.9028 22.1495C14.9138 22.4237 14.9551 22.6946 15.0252 22.9575C15.1263 23.3371 15.2874 23.6999 15.5038 24.0319L15.5253 24.0649L15.5485 24.0967L15.6771 24.2729L15.6966 24.2997L15.7173 24.3255C15.8023 24.4319 15.8556 24.5601 15.8709 24.6954C15.8863 24.8307 15.8631 24.9676 15.8041 25.0903C15.7451 25.213 15.6527 25.3166 15.5374 25.3891C15.4222 25.4615 15.2888 25.5 15.1527 25.5ZM6.75 15.5C6.75 15.0858 7.08579 14.75 7.5 14.75C7.91421 14.75 8.25 15.0858 8.25 15.5C8.25 15.9142 7.91421 16.25 7.5 16.25C7.08579 16.25 6.75 15.9142 6.75 15.5ZM7.5 13.25C6.25736 13.25 5.25 14.2574 5.25 15.5C5.25 16.7426 6.25736 17.75 7.5 17.75C8.74264 17.75 9.75 16.7426 9.75 15.5C9.75 14.2574 8.74264 13.25 7.5 13.25ZM10.5 8.75C10.0858 8.75 9.75 9.08579 9.75 9.5C9.75 9.91421 10.0858 10.25 10.5 10.25C10.9142 10.25 11.25 9.91421 11.25 9.5C11.25 9.08579 10.9142 8.75 10.5 8.75ZM8.25 9.5C8.25 8.25736 9.25736 7.25 10.5 7.25C11.7426 7.25 12.75 8.25736 12.75 9.5C12.75 10.7426 11.7426 11.75 10.5 11.75C9.25736 11.75 8.25 10.7426 8.25 9.5ZM16.75 8.5C16.75 8.08579 17.0858 7.75 17.5 7.75C17.9142 7.75 18.25 8.08579 18.25 8.5C18.25 8.91421 17.9142 9.25 17.5 9.25C17.0858 9.25 16.75 8.91421 16.75 8.5ZM17.5 6.25C16.2574 6.25 15.25 7.25736 15.25 8.5C15.25 9.74264 16.2574 10.75 17.5 10.75C18.7426 10.75 19.75 9.74264 19.75 8.5C19.75 7.25736 18.7426 6.25 17.5 6.25Z" fill="white"/>
</svg>
