<svg width="36" height="36" viewBox="0 0 36 36" fill="none" xmlns="http://www.w3.org/2000/svg">
<path fill-rule="evenodd" clip-rule="evenodd" d="M30.7254 5.07031H5.29688C4.46845 5.07031 3.79688 5.74189 3.79688 6.57032V23.5437L8.69531 19.0534C9.62634 18.2 11.0773 18.2799 11.909 19.2304L14.9475 22.7029L22.8865 16.3517C23.8471 15.5832 25.2468 15.7287 26.0289 16.6783L32.2254 24.2027V6.57031C32.2254 5.74188 31.5539 5.07031 30.7254 5.07031ZM3.79688 29.4275V26.9351L10.196 21.0692L13.2235 24.5292C14.0164 25.4354 15.3822 25.5567 16.3224 24.8045L24.2558 18.4579L32.2254 28.1354V29.4275C32.2254 30.2559 31.5539 30.9275 30.7254 30.9275H5.29687C4.46845 30.9275 3.79688 30.2559 3.79688 29.4275ZM5.29688 2.57031C3.08774 2.57031 1.29688 4.36118 1.29688 6.57032V29.4275C1.29688 31.6366 3.08773 33.4275 5.29687 33.4275H30.7254C32.9346 33.4275 34.7254 31.6366 34.7254 29.4275V6.57031C34.7254 4.36117 32.9346 2.57031 30.7254 2.57031H5.29688ZM10.2637 12.8585C10.2637 12.1287 10.8553 11.5371 11.5851 11.5371C12.3149 11.5371 12.9065 12.1287 12.9065 12.8585C12.9065 13.5883 12.3149 14.18 11.5851 14.18C10.8553 14.18 10.2637 13.5883 10.2637 12.8585ZM11.5851 9.03711C9.47458 9.03711 7.76367 10.748 7.76367 12.8585C7.76367 14.9691 9.47458 16.68 11.5851 16.68C13.6956 16.68 15.4065 14.9691 15.4065 12.8585C15.4065 10.748 13.6956 9.03711 11.5851 9.03711Z" fill="black"/>
</svg>
