<svg width="32" height="32" viewBox="0 0 32 32" fill="none" xmlns="http://www.w3.org/2000/svg">
<rect width="32" height="32" rx="8" fill="white" fill-opacity="0.08"/>
<rect x="0.25" y="0.25" width="31.5" height="31.5" rx="7.75" stroke="white" stroke-opacity="0.12" stroke-width="0.5"/>
<path fill-rule="evenodd" clip-rule="evenodd" d="M10.75 10C10.3358 10 10 10.3358 10 10.75C10 11.1642 10.3358 11.5 10.75 11.5H21.25C21.6642 11.5 22 11.1642 22 10.75C22 10.3358 21.6642 10 21.25 10H10.75ZM10.75 15C10.3358 15 10 15.3358 10 15.75C10 16.1642 10.3358 16.5 10.75 16.5H16.25C16.6642 16.5 17 16.1642 17 15.75C17 15.3358 16.6642 15 16.25 15H10.75ZM10 20.75C10 20.3358 10.3358 20 10.75 20H14.25C14.6642 20 15 20.3358 15 20.75C15 21.1642 14.6642 21.5 14.25 21.5H10.75C10.3358 21.5 10 21.1642 10 20.75ZM18 16.25V20.25C18 20.662 18.4704 20.8972 18.8 20.65L21.4667 18.65C21.7333 18.45 21.7333 18.05 21.4667 17.85L18.8 15.85C18.4704 15.6028 18 15.838 18 16.25Z" fill="white" fill-opacity="0.6"/>
</svg>
