<svg width="28" height="28" viewBox="0 0 28 28" fill="none" xmlns="http://www.w3.org/2000/svg">
<path fill-rule="evenodd" clip-rule="evenodd" d="M23 3.5H5C3.61929 3.5 2.5 4.61929 2.5 6V19.0242L6.73881 15.1387C7.46294 14.4749 8.59147 14.537 9.23834 15.2763L11.4343 17.786C11.5224 17.8867 11.6742 17.9002 11.7787 17.8166L17.7616 13.0302C18.5088 12.4325 19.5974 12.5457 20.2057 13.2843L25.5 19.7131V6C25.5 4.61929 24.3807 3.5 23 3.5ZM2.5 22V21.059L2.50679 21.0529L7.7524 16.2444C7.85585 16.1496 8.01706 16.1584 8.10947 16.2641L10.3055 18.7738C10.9222 19.4786 11.9844 19.5729 12.7157 18.9879L18.6986 14.2015C18.8054 14.1162 18.9609 14.1323 19.0478 14.2378L25.4211 21.9768C25.4454 22.0064 25.4716 22.0337 25.4993 22.0585C25.4682 23.4122 24.3611 24.5 23 24.5H5C3.61929 24.5 2.5 23.3807 2.5 22ZM5 2C2.79086 2 1 3.79086 1 6V22C1 24.2091 2.79086 26 5 26H23C25.2091 26 27 24.2091 27 22V6C27 3.79086 25.2091 2 23 2H5ZM7.75 10C7.75 9.30964 8.30964 8.75 9 8.75C9.69036 8.75 10.25 9.30964 10.25 10C10.25 10.6904 9.69036 11.25 9 11.25C8.30964 11.25 7.75 10.6904 7.75 10ZM9 7.25C7.48122 7.25 6.25 8.48122 6.25 10C6.25 11.5188 7.48122 12.75 9 12.75C10.5188 12.75 11.75 11.5188 11.75 10C11.75 8.48122 10.5188 7.25 9 7.25Z" fill="white"/>
</svg>
