<svg width="28" height="28" viewBox="0 0 28 28" fill="none" xmlns="http://www.w3.org/2000/svg">
<path fill-rule="evenodd" clip-rule="evenodd" d="M17.5 3H5.5C4.11929 3 3 4.11929 3 5.5V17.5C3 18.8807 4.11929 20 5.5 20H6.5V16.2598L6.47656 16.2364L6.5 16.2129V10.5C6.5 8.29086 8.29086 6.5 10.5 6.5H16.2129H16.5392H20V5.5C20 4.11929 18.8807 3 17.5 3ZM14.7129 8H10.5C9.11929 8 8 9.11929 8 10.5V14.7129L14.7129 8ZM8 16.8342L16.8342 8H20V10.4746L10.4746 20H8V16.8342ZM12.596 20H17.5C18.8807 20 20 18.8807 20 17.5V12.596L12.596 20ZM5.5 21.5H6.5V22.5C6.5 24.7091 8.29086 26.5 10.5 26.5H22.5C24.7091 26.5 26.5 24.7091 26.5 22.5V10.5C26.5 8.29086 24.7091 6.5 22.5 6.5H21.5V5.5C21.5 3.29086 19.7091 1.5 17.5 1.5H5.5C3.29086 1.5 1.5 3.29086 1.5 5.5V17.5C1.5 19.7091 3.29086 21.5 5.5 21.5ZM22.5 8H21.5V17.5C21.5 19.7091 19.7091 21.5 17.5 21.5H8V22.5C8 23.8807 9.11929 25 10.5 25H22.5C23.8807 25 25 23.8807 25 22.5V10.5C25 9.11929 23.8807 8 22.5 8Z" fill="white"/>
</svg>
