<svg width="28" height="28" viewBox="0 0 28 28" fill="none" xmlns="http://www.w3.org/2000/svg">
<path fill-rule="evenodd" clip-rule="evenodd" d="M16.75 1.75H16L12 1.75H11.25V0.25H12H16H16.75V1.75ZM7.75 1.75H8.5H9.5H10.25V3.25H9.5H8.5H7.75V1.75ZM5.25 4.75V3.25H6H7H7.75V4.75H7H6H5.25ZM2.75 6.25V4.75H3.5H4.5H5.25V6.25H4.5H3.5H2.75ZM2.75 20.75H1.25V20V7V6.25H2.75V7V20V20.75ZM5.25 22.25H4.5H3.5H2.75V20.75H3.5H4.5H5.25V22.25ZM7.75 23.75H7H6H5.25V22.25H6H7H7.75V23.75ZM7.75 23.75H8.5H9.5H10.25V25.25H9.5H8.5H7.75V23.75ZM20.25 1.75H19.5H18.5H17.75V3.25H18.5H19.5H20.25V4.75H21H22H22.75V6.25H23.5H24.5H25.25V7V20V20.75H24.5H23.5H22.75V22.25H22H21H20.25V23.75H19.5H18.5H17.75V25.25H18.5H19.5H20.25V23.75H21H22H22.75V22.25H23.5H24.5H25.25V20.75H26.75V20V7V6.25H25.25V4.75H24.5H23.5H22.75V3.25H22H21H20.25V1.75ZM16 26.75H16.75V25.25H16H12H11.25V26.75H12H16ZM14.75 3V2.25H13.25V3V11.5V12.25H14.75V11.5V3ZM14.75 14.75V15.5V24V24.75H13.25V24V15.5V14.75H14.75ZM6.25 7.75H5.5H4.5H3.75V9.25H4.5H5.5H6.25V10.75H7H8H8.75V12.25H9.5H10.5H11.25V10.75H10.5H9.5H8.75V9.25H8H7H6.25V7.75ZM21.75 7.75H22.5H23.5H24.25V9.25H23.5H22.5H21.75V7.75ZM19.25 10.75V9.25H20H21H21.75V10.75H21H20H19.25ZM19.25 10.75V12.25H18.5H17.5H16.75V10.75H17.5H18.5H19.25ZM5.5 19.25H6.25V17.75H7H8H8.75V16.25H9.5H10.5H11.25V14.75H10.5H9.5H8.75V16.25H8H7H6.25V17.75H5.5H4.5H3.75V19.25H4.5H5.5ZM22.5 19.25H21.75V17.75H22.5H23.5H24.25V19.25H23.5H22.5ZM19.25 16.25H20H21H21.75V17.75H21H20H19.25V16.25ZM19.25 16.25H18.5H17.5H16.75V14.75H17.5H18.5H19.25V16.25ZM16 12.75H16.75V14.25H16H12H11.25V12.75H12H16Z" fill="white"/>
</svg>
