<svg width="24" height="24" viewBox="0 0 24 24" fill="none" xmlns="http://www.w3.org/2000/svg">
<path fill-rule="evenodd" clip-rule="evenodd" d="M22.5 12C22.5 17.799 17.799 22.5 12 22.5C6.20101 22.5 1.5 17.799 1.5 12C1.5 6.20101 6.20101 1.5 12 1.5C17.799 1.5 22.5 6.20101 22.5 12ZM24 12C24 18.6274 18.6274 24 12 24C5.37258 24 0 18.6274 0 12C0 5.37258 5.37258 0 12 0C18.6274 0 24 5.37258 24 12ZM11.1498 7.66316C10.2471 7.92907 9.60151 8.43343 9.40498 8.78542C9.20305 9.14708 8.74617 9.27657 8.38451 9.07464C8.02285 8.87271 7.89336 8.41583 8.09529 8.05417C8.55676 7.22767 9.62187 6.54951 10.726 6.22428C11.8561 5.8914 13.254 5.85997 14.4203 6.61135C15.6308 7.39119 16.1395 8.64779 15.9612 9.85765C15.7847 11.0553 14.9477 12.1395 13.6277 12.6523C12.8599 12.9505 12.5082 13.3017 12.3383 13.5698C12.1665 13.841 12.1321 14.1038 12.1321 14.3093C12.1321 14.7235 11.7963 15.0593 11.3821 15.0593C10.9679 15.0593 10.6321 14.7235 10.6321 14.3093C10.6321 13.9259 10.6989 13.3547 11.0712 12.7671C11.4454 12.1765 12.0807 11.644 13.0846 11.2541C13.9271 10.9268 14.3833 10.2764 14.4772 9.63897C14.5693 9.01376 14.3257 8.33473 13.6079 7.87232C12.9316 7.43659 12.0265 7.40491 11.1498 7.66316ZM11.3906 15.9141C11.8048 15.9141 12.1406 16.2498 12.1406 16.6641V17.2536C12.1406 17.6678 11.8048 18.0036 11.3906 18.0036C10.9764 18.0036 10.6406 17.6678 10.6406 17.2536V16.6641C10.6406 16.2498 10.9764 15.9141 11.3906 15.9141Z" fill="white"/>
</svg>
