<svg width="28" height="28" viewBox="0 0 28 28" fill="none" xmlns="http://www.w3.org/2000/svg">
<path fill-rule="evenodd" clip-rule="evenodd" d="M1.25 4C1.25 2.48122 2.48122 1.25 4 1.25H10C10.4142 1.25 10.75 1.58579 10.75 2C10.75 2.41421 10.4142 2.75 10 2.75H4C3.30964 2.75 2.75 3.30964 2.75 4V10C2.75 10.4142 2.41421 10.75 2 10.75C1.58579 10.75 1.25 10.4142 1.25 10V4ZM17.25 2C17.25 1.58579 17.5858 1.25 18 1.25H24C25.5188 1.25 26.75 2.48122 26.75 4V10C26.75 10.4142 26.4142 10.75 26 10.75C25.5858 10.75 25.25 10.4142 25.25 10V4C25.25 3.30964 24.6904 2.75 24 2.75H18C17.5858 2.75 17.25 2.41421 17.25 2ZM2 17.25C2.41421 17.25 2.75 17.5858 2.75 18V24C2.75 24.6904 3.30964 25.25 4 25.25H10C10.4142 25.25 10.75 25.5858 10.75 26C10.75 26.4142 10.4142 26.75 10 26.75H4C2.48122 26.75 1.25 25.5188 1.25 24V18C1.25 17.5858 1.58579 17.25 2 17.25ZM26 17.25C26.4142 17.25 26.75 17.5858 26.75 18V24C26.75 25.5188 25.5188 26.75 24 26.75H18C17.5858 26.75 17.25 26.4142 17.25 26C17.25 25.5858 17.5858 25.25 18 25.25H24C24.6904 25.25 25.25 24.6904 25.25 24V18C25.25 17.5858 25.5858 17.25 26 17.25ZM14 17.5C15.933 17.5 17.5 15.933 17.5 14C17.5 12.067 15.933 10.5 14 10.5C12.067 10.5 10.5 12.067 10.5 14C10.5 15.933 12.067 17.5 14 17.5ZM18.9444 14.748C18.62 16.9106 16.9106 18.62 14.748 18.9444C14.7493 18.9628 14.75 18.9813 14.75 19V22C14.75 22.4142 14.4142 22.75 14 22.75C13.5858 22.75 13.25 22.4142 13.25 22V19C13.25 18.9813 13.2507 18.9628 13.252 18.9444C11.0894 18.62 9.37997 16.9106 9.05557 14.748C9.03722 14.7493 9.01869 14.75 9 14.75H6C5.58579 14.75 5.25 14.4142 5.25 14C5.25 13.5858 5.58579 13.25 6 13.25H9C9.01869 13.25 9.03722 13.2507 9.05557 13.252C9.37997 11.0894 11.0894 9.37997 13.252 9.05557C13.2507 9.03722 13.25 9.01869 13.25 9V6C13.25 5.58579 13.5858 5.25 14 5.25C14.4142 5.25 14.75 5.58579 14.75 6V9C14.75 9.01869 14.7493 9.03722 14.748 9.05557C16.9106 9.37997 18.62 11.0894 18.9444 13.252C18.9628 13.2507 18.9813 13.25 19 13.25H22C22.4142 13.25 22.75 13.5858 22.75 14C22.75 14.4142 22.4142 14.75 22 14.75H19C18.9813 14.75 18.9628 14.7493 18.9444 14.748ZM14 14.75C14.4142 14.75 14.75 14.4142 14.75 14C14.75 13.5858 14.4142 13.25 14 13.25C13.5858 13.25 13.25 13.5858 13.25 14C13.25 14.4142 13.5858 14.75 14 14.75Z" fill="white"/>
</svg>
