<svg width="24" height="24" viewBox="0 0 24 24" fill="none" xmlns="http://www.w3.org/2000/svg">
<mask id="mask0_46309_8660" style="mask-type:alpha" maskUnits="userSpaceOnUse" x="0" y="0" width="24" height="24">
<rect width="24" height="24" fill="white"/>
</mask>
<g mask="url(#mask0_46309_8660)">
<path fill-rule="evenodd" clip-rule="evenodd" d="M5.64426 3.69801C4.61995 3.28159 3.59912 4.30241 4.01554 5.32673L5.49566 8.96757C5.53083 9.05409 5.51485 9.15299 5.45422 9.22402L2.87766 12.2428C2.15262 13.0922 2.82064 14.3937 3.93352 14.2998L7.84428 13.9699C7.93863 13.9619 8.02937 14.008 8.0787 14.0888L10.1108 17.4183C10.6891 18.3658 12.1234 18.1457 12.3909 17.0684L13.1715 13.9256L20.1609 20.915C20.4538 21.2079 20.9287 21.2079 21.2216 20.915C21.5145 20.6221 21.5145 20.1472 21.2216 19.8543L14.2256 12.8583L17.386 12.0734C18.4632 11.8058 18.6833 10.3715 17.7358 9.79326L14.4063 7.76116C14.3255 7.71184 14.2795 7.62109 14.2874 7.52675L14.6174 3.61598C14.7113 2.50311 13.4098 1.83508 12.5603 2.56013L9.54156 5.13668C9.47052 5.19731 9.37162 5.21329 9.2851 5.17812L5.64426 3.69801ZM6.88522 8.40267L5.62824 5.31071L8.7202 6.56769C9.3258 6.81388 10.0181 6.70201 10.5154 6.27761L13.0716 4.09584L12.7927 7.40065C12.737 8.06105 13.0592 8.69627 13.6249 9.04153L16.4436 10.7619L13.1692 11.5751C12.5401 11.7314 12.0489 12.2226 11.8926 12.8517L11.0794 16.126L9.35907 13.3073C9.0138 12.7416 8.37859 12.4195 7.71818 12.4752L4.41337 12.754L6.59514 10.1978C7.01954 9.70059 7.13141 9.00827 6.88522 8.40267Z" fill="white"/>
</g>
</svg>
