<svg width="28" height="28" viewBox="0 0 28 28" fill="none" xmlns="http://www.w3.org/2000/svg">
<path fill-rule="evenodd" clip-rule="evenodd" d="M2.5 4.5V2.5H4.5V4.5H2.5ZM1 2C1 1.44772 1.44772 1 2 1H5C5.55228 1 6 1.44772 6 2V2.75H14H22V2C22 1.44772 22.4477 1 23 1H26C26.5523 1 27 1.44772 27 2V5C27 5.55228 26.5523 6 26 6H25.25V14V22H26C26.5523 22 27 22.4477 27 23V26C27 26.5523 26.5523 27 26 27H23C22.4477 27 22 26.5523 22 26V25.25H14H6V26C6 26.5523 5.55228 27 5 27H2C1.44772 27 1 26.5523 1 26V23C1 22.4477 1.44772 22 2 22H2.75V14V6H2C1.44772 6 1 5.55228 1 5V2ZM14 4.25H22V5C22 5.55228 22.4477 6 23 6H23.75V14V22H23C22.4477 22 22 22.4477 22 23V23.75H14H6V23C6 22.4477 5.55228 22 5 22H4.25V14V6H5C5.55228 6 6 5.55228 6 5V4.25H14ZM2.5 23.5V25.5H4.5V23.5H2.5ZM23.5 25.5V23.5H25.5V25.5H23.5ZM23.5 2.5V4.5H25.5V2.5H23.5ZM9.75 9C9.75 8.86193 9.86193 8.75 10 8.75H13.25V19.25H11C10.5858 19.25 10.25 19.5858 10.25 20C10.25 20.4142 10.5858 20.75 11 20.75H17C17.4142 20.75 17.75 20.4142 17.75 20C17.75 19.5858 17.4142 19.25 17 19.25H14.75V8.75H18C18.1381 8.75 18.25 8.86193 18.25 9V11C18.25 11.4142 18.5858 11.75 19 11.75C19.4142 11.75 19.75 11.4142 19.75 11V9C19.75 8.0335 18.9665 7.25 18 7.25H10C9.0335 7.25 8.25 8.0335 8.25 9V11C8.25 11.4142 8.58579 11.75 9 11.75C9.41421 11.75 9.75 11.4142 9.75 11V9Z" fill="white"/>
</svg>
