<svg width="20" height="20" viewBox="0 0 20 20" fill="none" xmlns="http://www.w3.org/2000/svg">
<path fill-rule="evenodd" clip-rule="evenodd" d="M5 1.25C2.92893 1.25 1.25 2.92893 1.25 5V15C1.25 17.0711 2.92893 18.75 5 18.75H13.4921C13.9063 18.75 14.2421 18.4142 14.2421 18C14.2421 17.5858 13.9063 17.25 13.4921 17.25H5C3.75736 17.25 2.75 16.2426 2.75 15V5C2.75 3.75736 3.75736 2.75 5 2.75H15C16.2426 2.75 17.25 3.75736 17.25 5V18C17.25 18.4142 17.5858 18.75 18 18.75C18.4142 18.75 18.75 18.4142 18.75 18V5C18.75 2.92893 17.0711 1.25 15 1.25H5ZM10.6479 9.09861L10.7122 9.14147L11.6755 9.78367L11.8752 9.91679C11.9346 9.95638 11.9346 10.0436 11.8752 10.0832L11.6755 10.2163L10.7122 10.8585L10.6479 10.9014L10.5 11L10.3195 11.1203L9.28028 11.8131L9.15547 11.8964C9.08901 11.9407 9 11.893 9 11.8131V11.6631V10.4142V10.1972V9.80278V9.58584V8.33685V8.18685C9 8.10698 9.08901 8.05934 9.15547 8.10365L9.28028 8.18685L10.3195 8.87966L10.5 9L10.6479 9.09861ZM9.98752 13.1444L12.7072 11.3313C13.6572 10.698 13.6572 9.30203 12.7072 8.66872L9.98752 6.85557C8.92423 6.14671 7.5 6.90894 7.5 8.18685V11.8131C7.5 13.0911 8.92423 13.8533 9.98752 13.1444Z" fill="#0F1115"/>
</svg>
